<svg width="20" height="20" viewBox="0 0 20 20" fill="none" xmlns="http://www.w3.org/2000/svg">
    <path fill-rule="evenodd" clip-rule="evenodd"
          d="M9.58332 1.04169C4.86589 1.04169 1.04166 4.86592 1.04166 9.58335C1.04166 14.3008 4.86589 18.125 9.58332 18.125C14.3008 18.125 18.125 14.3008 18.125 9.58335C18.125 4.86592 14.3008 1.04169 9.58332 1.04169ZM2.29166 9.58335C2.29166 5.55628 5.55625 2.29169 9.58332 2.29169C13.6104 2.29169 16.875 5.55628 16.875 9.58335C16.875 13.6104 13.6104 16.875 9.58332 16.875C5.55625 16.875 2.29166 13.6104 2.29166 9.58335Z"
          fill="#1579CE"/>
    <path
        d="M17.1086 16.2247C16.8645 15.9807 16.4688 15.9807 16.2247 16.2247C15.9806 16.4688 15.9806 16.8646 16.2247 17.1086L17.8914 18.7753C18.1355 19.0194 18.5312 19.0194 18.7753 18.7753C19.0193 18.5312 19.0193 18.1355 18.7753 17.8914L17.1086 16.2247Z"
        fill="#1579CE"/>
</svg>
