<svg width="24" height="24" viewBox="0 0 24 24" fill="none" xmlns="http://www.w3.org/2000/svg">
    <path
        d="M18.8597 5.58937C18.2721 4.26012 17.311 3.13022 16.0932 2.33706C14.8753 1.5439 13.4533 1.12164 12 1.12164C10.5467 1.12164 9.12464 1.5439 7.90683 2.33706C6.68902 3.13022 5.72789 4.26012 5.14031 5.58937C3.49118 6.39991 2.21897 7.81626 1.58939 9.5426C0.959806 11.2689 1.02154 13.1718 1.7617 14.8537C2.50185 16.5356 3.86319 17.8665 5.56139 18.5684C7.25959 19.2704 9.16333 19.2891 10.875 18.6206V21.75C10.875 22.0484 10.9935 22.3345 11.2045 22.5455C11.4155 22.7565 11.7016 22.875 12 22.875C12.2984 22.875 12.5845 22.7565 12.7955 22.5455C13.0065 22.3345 13.125 22.0484 13.125 21.75V18.6225C13.9606 18.9535 14.8512 19.124 15.75 19.125H15.93C17.5273 19.0856 19.065 18.5106 20.2961 17.4921C21.5272 16.4737 22.3803 15.071 22.7183 13.5094C23.0563 11.9478 22.8596 10.3179 22.1598 8.88153C21.46 7.44516 20.2977 6.28569 18.8597 5.58937ZM15.8766 16.875C14.9031 16.899 13.9447 16.6309 13.125 16.1053V12.6956L17.0034 10.7559C17.1377 10.6911 17.2578 10.6003 17.3567 10.4887C17.4555 10.3771 17.5312 10.2469 17.5794 10.1058C17.6275 9.96465 17.6471 9.81536 17.637 9.6666C17.6269 9.51783 17.5873 9.37255 17.5206 9.23921C17.4539 9.10587 17.3613 8.98713 17.2483 8.88988C17.1352 8.79263 17.004 8.71883 16.8622 8.67276C16.7204 8.62668 16.5708 8.60926 16.4222 8.6215C16.2736 8.63374 16.1289 8.6754 15.9966 8.74406L13.125 10.1794V8.24999C13.125 7.95162 13.0065 7.66548 12.7955 7.4545C12.5845 7.24352 12.2984 7.12499 12 7.12499C11.7016 7.12499 11.4155 7.24352 11.2045 7.4545C10.9935 7.66548 10.875 7.95162 10.875 8.24999V12.4294L8.00343 10.9941C7.73725 10.8656 7.43122 10.8471 7.15148 10.9425C6.87175 11.0379 6.64079 11.2395 6.50852 11.5038C6.37625 11.7681 6.35329 12.0738 6.44462 12.3549C6.53594 12.636 6.7342 12.8698 6.99655 13.0059L10.875 14.9456V16.1053C10.0547 16.6297 9.09673 16.8976 8.12343 16.875C5.54249 16.8103 3.36843 14.5725 3.37499 11.9878C3.37539 11.0167 3.66688 10.068 4.21184 9.26414C4.7568 8.46032 5.53019 7.83832 6.43218 7.47843C6.57814 7.41959 6.71012 7.33077 6.81961 7.21773C6.9291 7.10469 7.01365 6.96994 7.0678 6.82218C7.43677 5.81056 8.10788 4.93686 8.99015 4.31952C9.87242 3.70219 10.9232 3.37108 12 3.37108C13.0768 3.37108 14.1276 3.70219 15.0098 4.31952C15.8921 4.93686 16.5632 5.81056 16.9322 6.82218C16.9863 6.96994 17.0709 7.10469 17.1804 7.21773C17.2899 7.33077 17.4219 7.41959 17.5678 7.47843C18.4695 7.8382 19.2427 8.45992 19.7876 9.26336C20.3326 10.0668 20.6242 11.0151 20.625 11.9859C20.6325 14.5697 18.4575 16.8084 15.8766 16.875Z"
        fill="#EE1E23"/>
</svg>
