<svg width="20" height="20" viewBox="0 0 20 20" fill="none" xmlns="http://www.w3.org/2000/svg">
    <path
        d="M10.0001 1.875C9.83432 1.875 9.67535 1.94085 9.55814 2.05806C9.44093 2.17527 9.37508 2.33424 9.37508 2.5V6.875C9.37508 7.04076 9.44093 7.19973 9.55814 7.31694C9.67535 7.43415 9.83432 7.5 10.0001 7.5C10.5504 7.50012 11.0853 7.68182 11.5218 8.01692C11.9583 8.35201 12.2721 8.82178 12.4144 9.35336C12.5568 9.88494 12.5197 10.4486 12.3091 10.957C12.0984 11.4654 11.7259 11.8901 11.2493 12.1652C10.7727 12.4403 10.2186 12.5505 9.67299 12.4786C9.1274 12.4067 8.62076 12.1568 8.23165 11.7677C7.84254 11.3785 7.59271 10.8719 7.5209 10.3262C7.44908 9.78064 7.5593 9.22658 7.83445 8.75C7.87551 8.67891 7.90215 8.60042 7.91287 8.51902C7.92358 8.43763 7.91816 8.35492 7.8969 8.27563C7.87564 8.19633 7.83897 8.122 7.78898 8.05688C7.73899 7.99175 7.67666 7.93712 7.60555 7.89609L3.81648 5.70859C3.74539 5.66754 3.6669 5.64089 3.58551 5.63018C3.50412 5.61947 3.42141 5.62489 3.34211 5.64615C3.26281 5.66741 3.18848 5.70408 3.12336 5.75407C3.05824 5.80406 3.0036 5.86639 2.96258 5.9375C2.06831 7.48643 1.7101 9.28715 1.94353 11.0604C2.17695 12.8336 2.98896 14.4803 4.25361 15.7451C5.51826 17.0098 7.16489 17.8219 8.93812 18.0554C10.7114 18.289 12.5121 17.9309 14.0611 17.0367C15.6101 16.1425 16.8207 14.7623 17.5053 13.1099C18.1899 11.4576 18.3101 9.6255 17.8474 7.89785C17.3846 6.1702 16.3648 4.64352 14.9459 3.55456C13.5271 2.4656 11.7886 1.87523 10.0001 1.875ZM3.75711 7.11719L6.48445 8.69219C6.32925 9.11074 6.24989 9.5536 6.25008 10C6.25008 10.1195 6.25633 10.2344 6.26727 10.3531L3.22508 11.1719C2.98783 9.79762 3.17336 8.38372 3.75711 7.11719ZM3.54852 12.3758L6.59539 11.5602C6.85013 12.1154 7.23641 12.6002 7.72077 12.9726C8.20513 13.3449 8.77296 13.5935 9.37508 13.6969V16.8461C8.08119 16.7262 6.84759 16.2428 5.81663 15.4518C4.78568 14.6609 3.99939 13.5945 3.54852 12.3758ZM10.6251 16.8461V13.6969C11.4985 13.5488 12.2914 13.0963 12.8631 12.4196C13.4348 11.7428 13.7484 10.8855 13.7484 9.99961C13.7484 9.1137 13.4348 8.2564 12.8631 7.57965C12.2914 6.90289 11.4985 6.45039 10.6251 6.30234V3.15313C12.333 3.30917 13.921 4.09797 15.0773 5.36468C16.2335 6.63139 16.8746 8.28453 16.8746 9.99961C16.8746 11.7147 16.2335 13.3678 15.0773 14.6345C13.921 15.9013 12.333 16.69 10.6251 16.8461Z"
        fill="#1579CE"/>
</svg>
