<svg width="155" height="108" viewBox="0 0 155 108" fill="none" xmlns="http://www.w3.org/2000/svg">
    <path
        d="M57.4885 107.149L1.0826 68.4296C0.0190848 67.6995 -0.0853744 66.1685 0.869122 65.3008L3.7953 62.6406C4.24112 62.2353 4.84589 62.0526 5.44153 62.1433L9.27695 62.7269C11.6427 63.0869 12.5293 59.742 10.2958 58.883L9.86074 58.7157C8.83212 58.32 8.31739 57.1669 8.70972 56.137L11.633 48.4635C11.8632 47.859 11.7869 47.1804 11.4281 46.6421L9.70576 44.0586C8.97663 42.965 9.76065 41.5 11.0751 41.5C11.6495 41.5 12.1823 41.7994 12.4809 42.29L18.4156 52.0399C18.7785 52.6361 19.426 53 20.124 53H23.0313C24.3029 53 25.2516 51.8289 24.9877 50.585L22.289 37.8623C22.1153 37.0436 22.4698 36.2033 23.1775 35.7563L30.2768 31.2725C31.0068 30.8115 31.3585 29.9341 31.1491 29.0965L29.7425 23.4701C29.5899 22.8594 29.7336 22.2125 30.1306 21.7239L41.8997 7.23881C42.2795 6.77139 42.8497 6.5 43.4519 6.5H50.1716C50.702 6.5 51.2107 6.28929 51.5858 5.91421L56.6553 0.844735C57.4086 0.0913541 58.6204 0.0608413 59.4107 0.775347L153.805 86.1113C155.067 87.2526 154.418 89.3489 152.731 89.5769L139.893 91.3117C139.057 91.4247 138.382 92.0499 138.205 92.8747L137.272 97.2296C137.107 98.0022 136.502 98.6049 135.729 98.7677L130.131 99.946C128.82 100.222 128.146 101.684 128.788 102.861L128.887 103.042C129.614 104.375 128.649 106 127.131 106H118.169C117.203 106 116.374 105.309 116.201 104.358L115.756 101.911C115.603 101.067 114.93 100.415 114.082 100.29L103.707 98.7529C102.726 98.6076 102 97.7658 102 96.7745V96.1873C102 95.4554 101.6 94.7819 100.958 94.4315L91.6671 89.3638C91.2373 89.1295 90.7366 89.0608 90.2596 89.1709L84.8971 90.4084C84.635 90.4688 84.3879 90.5815 84.1704 90.7397L74.3237 97.901C73.8062 98.2773 73.5 98.8786 73.5 99.5184V105.5C73.5 106.605 72.6046 107.5 71.5 107.5H58.6204C58.2163 107.5 57.8217 107.378 57.4885 107.149Z"
        fill="#EE1E23" fill-opacity="0.4"/>
</svg>
